<svg xmlns="http://www.w3.org/2000/svg" viewBox="0 0 64 64" role="img" aria-label="Ari helpers">
  <title>Ari helpers</title>
  <rect x="2" y="2" width="60" height="60" rx="18" fill="#111318" stroke="#34363e" stroke-width="2"/>
  <path d="M7 48c12 5 38 5 50 0" fill="none" stroke="#777985" stroke-width="1.5" stroke-dasharray="2 4"/>
  <g transform="translate(12 39) scale(.67)" fill="#8bd9c2" stroke="#8bd9c2" stroke-linecap="round" stroke-linejoin="round">
    <path d="M0-12v-4" fill="none" stroke-width="2.5"/><circle cy="-18" r="2.5" stroke="none"/>
    <rect x="-8" y="-12" width="16" height="23" rx="8"/><rect x="-5.8" y="-5" width="11.6" height="7.3" rx="3.6" fill="#181a21" stroke="none"/>
    <circle cx="-2.3" cy="-1.3" r="1.15" fill="#fff" stroke="none"/><circle cx="2.3" cy="-1.3" r="1.15" fill="#fff" stroke="none"/><path d="M-4 11v3m8-3v3" fill="none" stroke-width="2.5"/>
  </g>
  <g transform="translate(23 36) scale(.82)" fill="#b7a5ff" stroke="#b7a5ff" stroke-linecap="round" stroke-linejoin="round">
    <path d="M0-12v-5m0 2-4-4m4 4 4-4" fill="none" stroke-width="2.5"/><rect x="-8" y="-12" width="16" height="23" rx="5"/>
    <rect x="-5.8" y="-5" width="11.6" height="7.3" rx="3.6" fill="#181a21" stroke="none"/><circle cx="-2.3" cy="-1.3" r="1.15" fill="#fff" stroke="none"/><circle cx="2.3" cy="-1.3" r="1.15" fill="#fff" stroke="none"/><path d="M-4 11v3m8-3v3" fill="none" stroke-width="2.5"/>
  </g>
  <g transform="translate(34 32) scale(1)" fill="#f4775d" stroke="#f4775d" stroke-linecap="round" stroke-linejoin="round">
    <path d="M0-12v-4" fill="none" stroke-width="2.5"/><circle cy="-18" r="2.5" stroke="none"/><path d="M-7 11V-5c0-8 3.5-12 7-12s7 4 7 12v16c0 5-3 8-7 8s-7-3-7-8Z"/>
    <rect x="-5.8" y="-5" width="11.6" height="7.3" rx="3.6" fill="#181a21" stroke="none"/><circle cx="-2.3" cy="-1.3" r="1.15" fill="#fff" stroke="none"/><circle cx="2.3" cy="-1.3" r="1.15" fill="#fff" stroke="none"/><path d="M-4 11v3m8-3v3" fill="none" stroke-width="2.5"/>
  </g>
  <g transform="translate(46 36) scale(.82)" fill="#83b9ff" stroke="#83b9ff" stroke-linecap="round" stroke-linejoin="round">
    <path d="M0-12v-5m0 2-4-4m4 4 4-4" fill="none" stroke-width="2.5"/><rect x="-8" y="-12" width="16" height="23" rx="5"/>
    <rect x="-5.8" y="-5" width="11.6" height="7.3" rx="3.6" fill="#181a21" stroke="none"/><circle cx="-2.3" cy="-1.3" r="1.15" fill="#fff" stroke="none"/><circle cx="2.3" cy="-1.3" r="1.15" fill="#fff" stroke="none"/><path d="M-4 11v3m8-3v3" fill="none" stroke-width="2.5"/>
  </g>
  <g transform="translate(56 39) scale(.67)" fill="#ffbd67" stroke="#ffbd67" stroke-linecap="round" stroke-linejoin="round">
    <path d="M0-12v-4" fill="none" stroke-width="2.5"/><circle cy="-18" r="2.5" stroke="none"/><rect x="-8" y="-12" width="16" height="23" rx="8"/>
    <rect x="-5.8" y="-5" width="11.6" height="7.3" rx="3.6" fill="#181a21" stroke="none"/><circle cx="-2.3" cy="-1.3" r="1.15" fill="#fff" stroke="none"/><circle cx="2.3" cy="-1.3" r="1.15" fill="#fff" stroke="none"/><path d="M-4 11v3m8-3v3" fill="none" stroke-width="2.5"/>
  </g>
</svg>
